Coordinates
version=1
nRows=6
nColumns=46
inDegrees=yes

Units are S.I. units (second, meters, Newtons, ...)
Angles are in degrees.

endheader
time	pelvis_tilt	pelvis_list	pelvis_rotation	pelvis_tx	pelvis_ty	pelvis_tz	bb_angle	bb_tx	bb_ty	bb_tz	hip_flexion_r	hip_adduction_r	hip_rotation_r	knee_angle_r	knee_angle_r_beta	ankle_angle_r	subtalar_angle_r	mtp_angle_r	crank_angle_r	hip_flexion_l	hip_adduction_l	hip_rotation_l	knee_angle_l	knee_angle_l_beta	ankle_angle_l	subtalar_angle_l	mtp_angle_l	crank_angle_l	lumbar_extension	lumbar_bending	lumbar_rotation	arm_flex_r	arm_add_r	arm_rot_r	elbow_flex_r	pro_sup_r	wrist_flex_r	wrist_dev_r	arm_flex_l	arm_add_l	arm_rot_l	elbow_flex_l	pro_sup_l	wrist_flex_l	wrist_dev_l
      5.00000000	    -18.65658704	      8.28288193	      1.15866446	      0.30849771	      1.06074390	     -0.27551714	      0.00000000	      0.50000000	      0.00000000	      0.25000000	     48.20535568	     -9.43546125	      3.09921465	     43.66143033	      0.76203572	     -5.72467819	     -7.63641724	      0.00000000	      0.00000000	     72.30454917	     -9.12290818	     -0.10051140	    111.30290503	      1.94260216	     -5.86017505	      1.11635077	      0.00000000	      0.00000000	    -71.33076410	     -1.23976203	     -4.87418164	     65.36412149	    -11.65727725	     22.49527011	     95.80396393	     49.30513383	      0.00000000	      0.00000000	     65.14091095	    -31.94247155	     22.76415086	     95.88816486	     47.29079328	      0.00000000	      0.00000000
      5.00500000	    -18.83188485	      8.09911079	      1.50695665	      0.30776176	      1.06000051	     -0.27535939	      0.00000000	      0.50000000	      0.00000000	      0.25000000	     47.15644447	     -9.82081859	      1.89232839	     42.38248274	      0.73971387	     -6.38932360	     -6.71517143	      0.00000000	      0.00000000	     73.92095209	     -8.91507105	      0.66098229	    112.50686216	      1.96361518	     -4.79292131	      1.98273537	      0.00000000	      0.00000000	    -71.21377929	     -1.15476130	     -4.92125400	     65.07270111	    -11.57585073	     21.84625738	     96.09625765	     49.27125806	      0.00000000	      0.00000000	     65.53867549	    -32.52551118	     23.73669064	     96.59854771	     47.49559039	      0.00000000	      0.00000000
      5.01000000	    -18.96699094	      8.22839269	      1.72883904	      0.30709193	      1.05958162	     -0.27498908	      0.00000000	      0.50000000	      0.00000000	      0.25000000	     46.10349456	    -10.23651380	      1.44416766	     41.11234964	      0.71754586	     -7.04635209	     -6.11364155	      0.00000000	      0.00000000	     75.31689762	     -8.55852717	      1.03750541	    113.52544741	      1.98139284	     -3.16986260	      1.75026190	      0.00000000	      0.00000000	    -71.19988884	     -1.39199424	     -5.28088136	     64.82095579	    -11.57124824	     21.17958576	     96.42281711	     49.23420645	      0.00000000	      0.00000000	     66.15207060	    -33.12048264	     24.75088844	     97.29938234	     47.69329852	      0.00000000	      0.00000000
      5.01500000	    -19.21910246	      8.50727113	      1.86888802	      0.30636607	      1.05931956	     -0.27469953	      0.00000000	      0.50000000	      0.00000000	      0.25000000	     45.29876173	    -10.70312750	      1.16572753	     39.97370057	      0.69767269	     -7.82438624	     -5.39988245	      0.00000000	      0.00000000	     76.71984637	     -8.24489370	      1.04070657	    114.28219400	      1.99460056	     -2.48350925	      1.73167372	      0.00000000	      0.00000000	    -71.10048918	     -1.70168177	     -5.76470163	     64.72217312	    -11.66184779	     21.02994477	     96.44330568	     49.21777817	      0.00000000	      0.00000000	     66.54628321	    -33.19586730	     24.86438346	     97.45954392	     47.72313828	      0.00000000	      0.00000000
      5.02000000	    -19.44456956	      8.73941179	      2.00697362	      0.30560773	      1.05924949	     -0.27459782	      0.00000000	      0.50000000	      0.00000000	      0.25000000	     44.49957907	    -11.13458488	      0.87654072	     38.91421589	      0.67918119	     -8.60904744	     -4.60810970	      0.00000000	      0.00000000	     78.04811132	     -7.90262508	      1.10429586	    114.90459619	      2.00546353	     -1.50232523	      1.60554343	      0.00000000	      0.00000000	    -71.02660681	     -1.98973822	     -6.18007513	     64.65858206	    -11.74242513	     20.85135291	     96.47450747	     49.19969100	      0.00000000	      0.00000000	     66.95106145	    -33.34437161	     25.00537259	     97.65582739	     47.76211460	      0.00000000	      0.00000000
      5.02500000	    -19.55274702	      8.87214763	      2.08071809	      0.30490058	      1.05955816	     -0.27443600	      0.00000000	      0.50000000	      0.00000000	      0.25000000	     43.62885731	    -11.46735703	      0.48355242	     37.96628947	      0.66263676	     -9.41560026	     -3.78784944	      0.00000000	      0.00000000	     79.21685625	     -7.66441150	      1.20661739	    115.37332943	      2.01364447	     -0.63583454	      1.48266612	      0.00000000	      0.00000000	    -71.08339773	     -2.29209376	     -6.54388552	     64.61424218	    -11.80298730	     20.65834040	     96.48111564	     49.17533101	      0.00000000	      0.00000000	     67.39171817	    -33.48520616	     25.19278339	     97.91564799	     47.81549657	      0.00000000	      0.00000000
